<mxfile host="app.diagrams.net" modified="2024-04-08T21:58:21.722Z" agent="Mozilla/5.0 (Windows NT 10.0; Win64; x64) AppleWebKit/537.36 (KHTML, like Gecko) Chrome/123.0.0.0 Safari/537.36" etag="CuXf_KXlAGM2GLMj2aVO" version="24.2.1" type="github">
  <diagram name="Strona-1" id="tuonSbg_EdPzoUg2D_FV">
    <mxGraphModel dx="1434" dy="1907" grid="1" gridSize="10" guides="1" tooltips="1" connect="1" arrows="1" fold="1" page="1" pageScale="1" pageWidth="827" pageHeight="1169" math="0" shadow="0">
      <root>
        <mxCell id="0" />
        <mxCell id="1" parent="0" />
        <mxCell id="mny1-GzMn-NBweHntWzj-1" value="" style="rounded=0;whiteSpace=wrap;html=1;" vertex="1" parent="1">
          <mxGeometry x="20" y="160" width="200" height="340" as="geometry" />
        </mxCell>
        <mxCell id="mny1-GzMn-NBweHntWzj-2" value="" style="rounded=0;whiteSpace=wrap;html=1;" vertex="1" parent="1">
          <mxGeometry x="520" y="390" width="200" height="340" as="geometry" />
        </mxCell>
        <mxCell id="mny1-GzMn-NBweHntWzj-3" value="" style="rounded=0;whiteSpace=wrap;html=1;" vertex="1" parent="1">
          <mxGeometry x="240" y="160" width="200" height="340" as="geometry" />
        </mxCell>
        <mxCell id="mny1-GzMn-NBweHntWzj-4" value="" style="rounded=0;whiteSpace=wrap;html=1;" vertex="1" parent="1">
          <mxGeometry x="520" y="-20" width="200" height="340" as="geometry" />
        </mxCell>
        <mxCell id="mny1-GzMn-NBweHntWzj-5" value="Jakies malo istotne funkcje" style="rounded=0;whiteSpace=wrap;html=1;" vertex="1" parent="1">
          <mxGeometry x="60" y="440" width="120" height="30" as="geometry" />
        </mxCell>
        <mxCell id="mny1-GzMn-NBweHntWzj-6" value="Event" style="text;html=1;align=center;verticalAlign=middle;whiteSpace=wrap;rounded=0;" vertex="1" parent="1">
          <mxGeometry x="90" y="170" width="60" height="30" as="geometry" />
        </mxCell>
        <mxCell id="mny1-GzMn-NBweHntWzj-7" value="Billings" style="rounded=0;whiteSpace=wrap;html=1;" vertex="1" parent="1">
          <mxGeometry x="60" y="360" width="120" height="30" as="geometry" />
        </mxCell>
        <mxCell id="mny1-GzMn-NBweHntWzj-8" value="Jakies malo istotne funkcje" style="rounded=0;whiteSpace=wrap;html=1;" vertex="1" parent="1">
          <mxGeometry x="60" y="400" width="120" height="30" as="geometry" />
        </mxCell>
        <mxCell id="mny1-GzMn-NBweHntWzj-9" value="" style="rounded=0;whiteSpace=wrap;html=1;" vertex="1" parent="1">
          <mxGeometry x="60" y="210" width="120" height="110" as="geometry" />
        </mxCell>
        <mxCell id="mny1-GzMn-NBweHntWzj-12" value="Add Bill" style="rounded=0;whiteSpace=wrap;html=1;" vertex="1" parent="1">
          <mxGeometry x="280" y="360" width="120" height="30" as="geometry" />
        </mxCell>
        <mxCell id="mny1-GzMn-NBweHntWzj-13" value="Total event cost:&lt;br&gt;1 000 000 $" style="rounded=0;whiteSpace=wrap;html=1;" vertex="1" parent="1">
          <mxGeometry x="280" y="270" width="120" height="60" as="geometry" />
        </mxCell>
        <mxCell id="mny1-GzMn-NBweHntWzj-14" value="Your budget&lt;br&gt;-1 000 000 $" style="rounded=0;whiteSpace=wrap;html=1;" vertex="1" parent="1">
          <mxGeometry x="280" y="210" width="120" height="50" as="geometry" />
        </mxCell>
        <mxCell id="mny1-GzMn-NBweHntWzj-15" value="Event billings" style="text;html=1;align=center;verticalAlign=middle;whiteSpace=wrap;rounded=0;" vertex="1" parent="1">
          <mxGeometry x="310" y="170" width="60" height="30" as="geometry" />
        </mxCell>
        <mxCell id="mny1-GzMn-NBweHntWzj-16" value="Debt balance&lt;span style=&quot;color: rgba(0, 0, 0, 0); font-family: monospace; font-size: 0px; text-align: start; text-wrap: nowrap;&quot;&gt;%3CmxGraphModel%3E%3Croot%3E%3CmxCell%20id%3D%220%22%2F%3E%3CmxCell%20id%3D%221%22%20parent%3D%220%22%2F%3E%3CmxCell%20id%3D%222%22%20value%3D%22Add%20Bill%22%20style%3D%22rounded%3D0%3BwhiteSpace%3Dwrap%3Bhtml%3D1%3B%22%20vertex%3D%221%22%20parent%3D%221%22%3E%3CmxGeometry%20x%3D%22280%22%20y%3D%22360%22%20width%3D%22120%22%20height%3D%2230%22%20as%3D%22geometry%22%2F%3E%3C%2FmxCell%3E%3C%2Froot%3E%3C%2FmxGraphModel%3E&lt;/span&gt;" style="rounded=0;whiteSpace=wrap;html=1;" vertex="1" parent="1">
          <mxGeometry x="280" y="400" width="120" height="30" as="geometry" />
        </mxCell>
        <mxCell id="mny1-GzMn-NBweHntWzj-18" value="Back?" style="rounded=0;whiteSpace=wrap;html=1;" vertex="1" parent="1">
          <mxGeometry x="280" y="440" width="120" height="30" as="geometry" />
        </mxCell>
        <mxCell id="mny1-GzMn-NBweHntWzj-19" value="" style="endArrow=classic;html=1;rounded=0;entryX=0;entryY=0.25;entryDx=0;entryDy=0;exitX=1;exitY=0.5;exitDx=0;exitDy=0;" edge="1" parent="1" source="mny1-GzMn-NBweHntWzj-16" target="mny1-GzMn-NBweHntWzj-2">
          <mxGeometry width="50" height="50" relative="1" as="geometry">
            <mxPoint x="380" y="430" as="sourcePoint" />
            <mxPoint x="430" y="380" as="targetPoint" />
          </mxGeometry>
        </mxCell>
        <mxCell id="mny1-GzMn-NBweHntWzj-20" value="Tomasz" style="rounded=0;whiteSpace=wrap;html=1;" vertex="1" parent="1">
          <mxGeometry x="540" y="480" width="50" height="30" as="geometry" />
        </mxCell>
        <mxCell id="mny1-GzMn-NBweHntWzj-21" value="Event balance" style="text;html=1;align=center;verticalAlign=middle;whiteSpace=wrap;rounded=0;" vertex="1" parent="1">
          <mxGeometry x="590" y="395" width="60" height="30" as="geometry" />
        </mxCell>
        <mxCell id="mny1-GzMn-NBweHntWzj-22" value="Tomasz" style="rounded=0;whiteSpace=wrap;html=1;" vertex="1" parent="1">
          <mxGeometry x="540" y="560" width="50" height="30" as="geometry" />
        </mxCell>
        <mxCell id="mny1-GzMn-NBweHntWzj-23" value="Tomasz" style="rounded=0;whiteSpace=wrap;html=1;" vertex="1" parent="1">
          <mxGeometry x="540" y="520" width="50" height="30" as="geometry" />
        </mxCell>
        <mxCell id="mny1-GzMn-NBweHntWzj-24" value="My" style="rounded=0;whiteSpace=wrap;html=1;" vertex="1" parent="1">
          <mxGeometry x="560" y="430" width="120" height="30" as="geometry" />
        </mxCell>
        <mxCell id="mny1-GzMn-NBweHntWzj-25" value="Tomasz" style="rounded=0;whiteSpace=wrap;html=1;" vertex="1" parent="1">
          <mxGeometry x="540" y="600" width="50" height="30" as="geometry" />
        </mxCell>
        <mxCell id="mny1-GzMn-NBweHntWzj-28" value="Klaudia" style="rounded=0;whiteSpace=wrap;html=1;" vertex="1" parent="1">
          <mxGeometry x="650" y="480" width="50" height="30" as="geometry" />
        </mxCell>
        <mxCell id="mny1-GzMn-NBweHntWzj-29" value="Marek" style="rounded=0;whiteSpace=wrap;html=1;" vertex="1" parent="1">
          <mxGeometry x="650" y="560" width="50" height="30" as="geometry" />
        </mxCell>
        <mxCell id="mny1-GzMn-NBweHntWzj-30" value="Marcin" style="rounded=0;whiteSpace=wrap;html=1;" vertex="1" parent="1">
          <mxGeometry x="650" y="520" width="50" height="30" as="geometry" />
        </mxCell>
        <mxCell id="mny1-GzMn-NBweHntWzj-31" value="Tadeusz" style="rounded=0;whiteSpace=wrap;html=1;" vertex="1" parent="1">
          <mxGeometry x="650" y="600" width="50" height="30" as="geometry" />
        </mxCell>
        <mxCell id="mny1-GzMn-NBweHntWzj-32" value="" style="endArrow=classic;html=1;rounded=0;entryX=0;entryY=0.5;entryDx=0;entryDy=0;exitX=1;exitY=0.5;exitDx=0;exitDy=0;" edge="1" parent="1" source="mny1-GzMn-NBweHntWzj-20" target="mny1-GzMn-NBweHntWzj-28">
          <mxGeometry width="50" height="50" relative="1" as="geometry">
            <mxPoint x="615" y="500" as="sourcePoint" />
            <mxPoint x="735" y="560" as="targetPoint" />
          </mxGeometry>
        </mxCell>
        <mxCell id="mny1-GzMn-NBweHntWzj-34" value="" style="endArrow=classic;html=1;rounded=0;entryX=0;entryY=0.5;entryDx=0;entryDy=0;exitX=1;exitY=0.5;exitDx=0;exitDy=0;" edge="1" parent="1">
          <mxGeometry width="50" height="50" relative="1" as="geometry">
            <mxPoint x="590" y="534.76" as="sourcePoint" />
            <mxPoint x="650" y="534.76" as="targetPoint" />
          </mxGeometry>
        </mxCell>
        <mxCell id="mny1-GzMn-NBweHntWzj-35" value="" style="endArrow=classic;html=1;rounded=0;exitX=0;exitY=0.5;exitDx=0;exitDy=0;entryX=1;entryY=0.5;entryDx=0;entryDy=0;" edge="1" parent="1" source="mny1-GzMn-NBweHntWzj-29" target="mny1-GzMn-NBweHntWzj-22">
          <mxGeometry width="50" height="50" relative="1" as="geometry">
            <mxPoint x="610" y="515" as="sourcePoint" />
            <mxPoint x="670" y="515" as="targetPoint" />
          </mxGeometry>
        </mxCell>
        <mxCell id="mny1-GzMn-NBweHntWzj-36" value="" style="endArrow=classic;html=1;rounded=0;exitX=1;exitY=0.5;exitDx=0;exitDy=0;entryX=0;entryY=0.5;entryDx=0;entryDy=0;" edge="1" parent="1" source="mny1-GzMn-NBweHntWzj-25" target="mny1-GzMn-NBweHntWzj-31">
          <mxGeometry width="50" height="50" relative="1" as="geometry">
            <mxPoint x="660" y="585" as="sourcePoint" />
            <mxPoint x="600" y="585" as="targetPoint" />
          </mxGeometry>
        </mxCell>
        <mxCell id="mny1-GzMn-NBweHntWzj-37" value="100 $" style="text;html=1;align=center;verticalAlign=middle;whiteSpace=wrap;rounded=0;" vertex="1" parent="1">
          <mxGeometry x="590" y="470" width="60" height="30" as="geometry" />
        </mxCell>
        <mxCell id="mny1-GzMn-NBweHntWzj-38" value="11&lt;span style=&quot;color: rgba(0, 0, 0, 0); font-family: monospace; font-size: 0px; text-align: start; text-wrap: nowrap;&quot;&gt;%3CmxGraphModel%3E%3Croot%3E%3CmxCell%20id%3D%220%22%2F%3E%3CmxCell%20id%3D%221%22%20parent%3D%220%22%2F%3E%3CmxCell%20id%3D%222%22%20value%3D%22100%20%24%22%20style%3D%22text%3Bhtml%3D1%3Balign%3Dcenter%3BverticalAlign%3Dmiddle%3BwhiteSpace%3Dwrap%3Brounded%3D0%3B%22%20vertex%3D%221%22%20parent%3D%221%22%3E%3CmxGeometry%20x%3D%22590%22%20y%3D%22470%22%20width%3D%2260%22%20height%3D%2230%22%20as%3D%22geometry%22%2F%3E%3C%2FmxCell%3E%3C%2Froot%3E%3C%2FmxGraphModel%3E&lt;/span&gt;0 $" style="text;html=1;align=center;verticalAlign=middle;whiteSpace=wrap;rounded=0;" vertex="1" parent="1">
          <mxGeometry x="590" y="510" width="60" height="30" as="geometry" />
        </mxCell>
        <mxCell id="mny1-GzMn-NBweHntWzj-39" value="-11&lt;span style=&quot;color: rgba(0, 0, 0, 0); font-family: monospace; font-size: 0px; text-align: start; text-wrap: nowrap;&quot;&gt;%3CmxGraphModel%3E%3Croot%3E%3CmxCell%20id%3D%220%22%2F%3E%3CmxCell%20id%3D%221%22%20parent%3D%220%22%2F%3E%3CmxCell%20id%3D%222%22%20value%3D%22100%20%24%22%20style%3D%22text%3Bhtml%3D1%3Balign%3Dcenter%3BverticalAlign%3Dmiddle%3BwhiteSpace%3Dwrap%3Brounded%3D0%3B%22%20vertex%3D%221%22%20parent%3D%221%22%3E%3CmxGeometry%20x%3D%22590%22%20y%3D%22470%22%20width%3D%2260%22%20height%3D%2230%22%20as%3D%22geometry%22%2F%3E%3C%2FmxCell%3E%3C%2Froot%3E%3C%2FmxGraphModel%3E&lt;/span&gt;0 $" style="text;html=1;align=center;verticalAlign=middle;whiteSpace=wrap;rounded=0;" vertex="1" parent="1">
          <mxGeometry x="590" y="545" width="60" height="30" as="geometry" />
        </mxCell>
        <mxCell id="mny1-GzMn-NBweHntWzj-40" value="20 $" style="text;html=1;align=center;verticalAlign=middle;whiteSpace=wrap;rounded=0;" vertex="1" parent="1">
          <mxGeometry x="590" y="585" width="60" height="30" as="geometry" />
        </mxCell>
        <mxCell id="mny1-GzMn-NBweHntWzj-41" value="" style="rounded=0;whiteSpace=wrap;html=1;" vertex="1" parent="1">
          <mxGeometry x="760" y="390" width="200" height="340" as="geometry" />
        </mxCell>
        <mxCell id="mny1-GzMn-NBweHntWzj-42" value="Tomasz" style="rounded=0;whiteSpace=wrap;html=1;" vertex="1" parent="1">
          <mxGeometry x="780" y="480" width="50" height="30" as="geometry" />
        </mxCell>
        <mxCell id="mny1-GzMn-NBweHntWzj-43" value="Event balance" style="text;html=1;align=center;verticalAlign=middle;whiteSpace=wrap;rounded=0;" vertex="1" parent="1">
          <mxGeometry x="830" y="395" width="60" height="30" as="geometry" />
        </mxCell>
        <mxCell id="mny1-GzMn-NBweHntWzj-44" value="Marcin" style="rounded=0;whiteSpace=wrap;html=1;" vertex="1" parent="1">
          <mxGeometry x="780" y="560" width="50" height="30" as="geometry" />
        </mxCell>
        <mxCell id="mny1-GzMn-NBweHntWzj-45" value="Klaudia" style="rounded=0;whiteSpace=wrap;html=1;" vertex="1" parent="1">
          <mxGeometry x="780" y="520" width="50" height="30" as="geometry" />
        </mxCell>
        <mxCell id="mny1-GzMn-NBweHntWzj-46" value="All" style="rounded=0;whiteSpace=wrap;html=1;" vertex="1" parent="1">
          <mxGeometry x="800" y="430" width="120" height="30" as="geometry" />
        </mxCell>
        <mxCell id="mny1-GzMn-NBweHntWzj-47" value="Marek" style="rounded=0;whiteSpace=wrap;html=1;" vertex="1" parent="1">
          <mxGeometry x="780" y="600" width="50" height="30" as="geometry" />
        </mxCell>
        <mxCell id="mny1-GzMn-NBweHntWzj-48" value="Klaudia" style="rounded=0;whiteSpace=wrap;html=1;" vertex="1" parent="1">
          <mxGeometry x="890" y="480" width="50" height="30" as="geometry" />
        </mxCell>
        <mxCell id="mny1-GzMn-NBweHntWzj-49" value="Marek" style="rounded=0;whiteSpace=wrap;html=1;" vertex="1" parent="1">
          <mxGeometry x="890" y="560" width="50" height="30" as="geometry" />
        </mxCell>
        <mxCell id="mny1-GzMn-NBweHntWzj-50" value="Marcin" style="rounded=0;whiteSpace=wrap;html=1;" vertex="1" parent="1">
          <mxGeometry x="890" y="520" width="50" height="30" as="geometry" />
        </mxCell>
        <mxCell id="mny1-GzMn-NBweHntWzj-51" value="Tadeusz" style="rounded=0;whiteSpace=wrap;html=1;" vertex="1" parent="1">
          <mxGeometry x="890" y="600" width="50" height="30" as="geometry" />
        </mxCell>
        <mxCell id="mny1-GzMn-NBweHntWzj-52" value="" style="endArrow=classic;html=1;rounded=0;entryX=0;entryY=0.5;entryDx=0;entryDy=0;exitX=1;exitY=0.5;exitDx=0;exitDy=0;" edge="1" parent="1" source="mny1-GzMn-NBweHntWzj-42" target="mny1-GzMn-NBweHntWzj-48">
          <mxGeometry width="50" height="50" relative="1" as="geometry">
            <mxPoint x="855" y="500" as="sourcePoint" />
            <mxPoint x="975" y="560" as="targetPoint" />
          </mxGeometry>
        </mxCell>
        <mxCell id="mny1-GzMn-NBweHntWzj-53" value="" style="endArrow=classic;html=1;rounded=0;entryX=0;entryY=0.5;entryDx=0;entryDy=0;exitX=1;exitY=0.5;exitDx=0;exitDy=0;" edge="1" parent="1">
          <mxGeometry width="50" height="50" relative="1" as="geometry">
            <mxPoint x="830" y="534.76" as="sourcePoint" />
            <mxPoint x="890" y="534.76" as="targetPoint" />
          </mxGeometry>
        </mxCell>
        <mxCell id="mny1-GzMn-NBweHntWzj-54" value="" style="endArrow=classic;html=1;rounded=0;exitX=0;exitY=0.5;exitDx=0;exitDy=0;entryX=1;entryY=0.5;entryDx=0;entryDy=0;" edge="1" parent="1" source="mny1-GzMn-NBweHntWzj-49" target="mny1-GzMn-NBweHntWzj-44">
          <mxGeometry width="50" height="50" relative="1" as="geometry">
            <mxPoint x="850" y="515" as="sourcePoint" />
            <mxPoint x="910" y="515" as="targetPoint" />
          </mxGeometry>
        </mxCell>
        <mxCell id="mny1-GzMn-NBweHntWzj-55" value="" style="endArrow=classic;html=1;rounded=0;exitX=1;exitY=0.5;exitDx=0;exitDy=0;entryX=0;entryY=0.5;entryDx=0;entryDy=0;" edge="1" parent="1" source="mny1-GzMn-NBweHntWzj-47" target="mny1-GzMn-NBweHntWzj-51">
          <mxGeometry width="50" height="50" relative="1" as="geometry">
            <mxPoint x="900" y="585" as="sourcePoint" />
            <mxPoint x="840" y="585" as="targetPoint" />
          </mxGeometry>
        </mxCell>
        <mxCell id="mny1-GzMn-NBweHntWzj-56" value="100 $" style="text;html=1;align=center;verticalAlign=middle;whiteSpace=wrap;rounded=0;" vertex="1" parent="1">
          <mxGeometry x="830" y="470" width="60" height="30" as="geometry" />
        </mxCell>
        <mxCell id="mny1-GzMn-NBweHntWzj-57" value="11&lt;span style=&quot;color: rgba(0, 0, 0, 0); font-family: monospace; font-size: 0px; text-align: start; text-wrap: nowrap;&quot;&gt;%3CmxGraphModel%3E%3Croot%3E%3CmxCell%20id%3D%220%22%2F%3E%3CmxCell%20id%3D%221%22%20parent%3D%220%22%2F%3E%3CmxCell%20id%3D%222%22%20value%3D%22100%20%24%22%20style%3D%22text%3Bhtml%3D1%3Balign%3Dcenter%3BverticalAlign%3Dmiddle%3BwhiteSpace%3Dwrap%3Brounded%3D0%3B%22%20vertex%3D%221%22%20parent%3D%221%22%3E%3CmxGeometry%20x%3D%22590%22%20y%3D%22470%22%20width%3D%2260%22%20height%3D%2230%22%20as%3D%22geometry%22%2F%3E%3C%2FmxCell%3E%3C%2Froot%3E%3C%2FmxGraphModel%3E&lt;/span&gt;0 $" style="text;html=1;align=center;verticalAlign=middle;whiteSpace=wrap;rounded=0;" vertex="1" parent="1">
          <mxGeometry x="830" y="510" width="60" height="30" as="geometry" />
        </mxCell>
        <mxCell id="mny1-GzMn-NBweHntWzj-58" value="-11&lt;span style=&quot;color: rgba(0, 0, 0, 0); font-family: monospace; font-size: 0px; text-align: start; text-wrap: nowrap;&quot;&gt;%3CmxGraphModel%3E%3Croot%3E%3CmxCell%20id%3D%220%22%2F%3E%3CmxCell%20id%3D%221%22%20parent%3D%220%22%2F%3E%3CmxCell%20id%3D%222%22%20value%3D%22100%20%24%22%20style%3D%22text%3Bhtml%3D1%3Balign%3Dcenter%3BverticalAlign%3Dmiddle%3BwhiteSpace%3Dwrap%3Brounded%3D0%3B%22%20vertex%3D%221%22%20parent%3D%221%22%3E%3CmxGeometry%20x%3D%22590%22%20y%3D%22470%22%20width%3D%2260%22%20height%3D%2230%22%20as%3D%22geometry%22%2F%3E%3C%2FmxCell%3E%3C%2Froot%3E%3C%2FmxGraphModel%3E&lt;/span&gt;0 $" style="text;html=1;align=center;verticalAlign=middle;whiteSpace=wrap;rounded=0;" vertex="1" parent="1">
          <mxGeometry x="830" y="545" width="60" height="30" as="geometry" />
        </mxCell>
        <mxCell id="mny1-GzMn-NBweHntWzj-59" value="20 $" style="text;html=1;align=center;verticalAlign=middle;whiteSpace=wrap;rounded=0;" vertex="1" parent="1">
          <mxGeometry x="830" y="585" width="60" height="30" as="geometry" />
        </mxCell>
        <mxCell id="mny1-GzMn-NBweHntWzj-60" value="" style="endArrow=classic;startArrow=classic;html=1;rounded=0;entryX=0;entryY=0.5;entryDx=0;entryDy=0;exitX=1;exitY=0.5;exitDx=0;exitDy=0;" edge="1" parent="1" source="mny1-GzMn-NBweHntWzj-24" target="mny1-GzMn-NBweHntWzj-46">
          <mxGeometry width="50" height="50" relative="1" as="geometry">
            <mxPoint x="460" y="460" as="sourcePoint" />
            <mxPoint x="510" y="410" as="targetPoint" />
          </mxGeometry>
        </mxCell>
        <mxCell id="mny1-GzMn-NBweHntWzj-61" value="Klaudia" style="rounded=0;whiteSpace=wrap;html=1;" vertex="1" parent="1">
          <mxGeometry x="780" y="640" width="50" height="30" as="geometry" />
        </mxCell>
        <mxCell id="mny1-GzMn-NBweHntWzj-62" value="Marek" style="rounded=0;whiteSpace=wrap;html=1;" vertex="1" parent="1">
          <mxGeometry x="890" y="640" width="50" height="30" as="geometry" />
        </mxCell>
        <mxCell id="mny1-GzMn-NBweHntWzj-63" value="" style="endArrow=classic;html=1;rounded=0;exitX=0;exitY=0.5;exitDx=0;exitDy=0;entryX=1;entryY=0.5;entryDx=0;entryDy=0;" edge="1" parent="1" source="mny1-GzMn-NBweHntWzj-62" target="mny1-GzMn-NBweHntWzj-61">
          <mxGeometry width="50" height="50" relative="1" as="geometry">
            <mxPoint x="855" y="660" as="sourcePoint" />
            <mxPoint x="975" y="720" as="targetPoint" />
          </mxGeometry>
        </mxCell>
        <mxCell id="mny1-GzMn-NBweHntWzj-64" value="-11&lt;span style=&quot;color: rgba(0, 0, 0, 0); font-family: monospace; font-size: 0px; text-align: start; text-wrap: nowrap;&quot;&gt;%3CmxGraphModel%3E%3Croot%3E%3CmxCell%20id%3D%220%22%2F%3E%3CmxCell%20id%3D%221%22%20parent%3D%220%22%2F%3E%3CmxCell%20id%3D%222%22%20value%3D%22100%20%24%22%20style%3D%22text%3Bhtml%3D1%3Balign%3Dcenter%3BverticalAlign%3Dmiddle%3BwhiteSpace%3Dwrap%3Brounded%3D0%3B%22%20vertex%3D%221%22%20parent%3D%221%22%3E%3CmxGeometry%20x%3D%22590%22%20y%3D%22470%22%20width%3D%2260%22%20height%3D%2230%22%20as%3D%22geometry%22%2F%3E%3C%2FmxCell%3E%3C%2Froot%3E%3C%2FmxGraphModel%3E&lt;/span&gt;0 $" style="text;html=1;align=center;verticalAlign=middle;whiteSpace=wrap;rounded=0;" vertex="1" parent="1">
          <mxGeometry x="830" y="630" width="60" height="30" as="geometry" />
        </mxCell>
        <mxCell id="mny1-GzMn-NBweHntWzj-65" value="Taduesz" style="rounded=0;whiteSpace=wrap;html=1;" vertex="1" parent="1">
          <mxGeometry x="780" y="680" width="50" height="30" as="geometry" />
        </mxCell>
        <mxCell id="mny1-GzMn-NBweHntWzj-66" value="Klauda" style="rounded=0;whiteSpace=wrap;html=1;" vertex="1" parent="1">
          <mxGeometry x="890" y="680" width="50" height="30" as="geometry" />
        </mxCell>
        <mxCell id="mny1-GzMn-NBweHntWzj-67" value="" style="endArrow=classic;html=1;rounded=0;exitX=0;exitY=0.5;exitDx=0;exitDy=0;entryX=1;entryY=0.5;entryDx=0;entryDy=0;" edge="1" parent="1" source="mny1-GzMn-NBweHntWzj-66" target="mny1-GzMn-NBweHntWzj-65">
          <mxGeometry width="50" height="50" relative="1" as="geometry">
            <mxPoint x="855" y="700" as="sourcePoint" />
            <mxPoint x="975" y="760" as="targetPoint" />
          </mxGeometry>
        </mxCell>
        <mxCell id="mny1-GzMn-NBweHntWzj-68" value="-71&lt;span style=&quot;color: rgba(0, 0, 0, 0); font-family: monospace; font-size: 0px; text-align: start; text-wrap: nowrap;&quot;&gt;%3CmxGraphModel%3E%3Croot%3E%3CmxCell%20id%3D%220%22%2F%3E%3CmxCell%20id%3D%221%22%20parent%3D%220%22%2F%3E%3CmxCell%20id%3D%222%22%20value%3D%22100%20%24%22%20style%3D%22text%3Bhtml%3D1%3Balign%3Dcenter%3BverticalAlign%3Dmiddle%3BwhiteSpace%3Dwrap%3Brounded%3D0%3B%22%20vertex%3D%221%22%20parent%3D%221%22%3E%3CmxGeometry%20x%3D%22590%22%20y%3D%22470%22%20width%3D%2260%22%20height%3D%2230%22%20as%3D%22geometry%22%2F%3E%3C%2FmxCell%3E%3C%2Froot%3E%3C%2FmxGraphModel%3E&lt;/span&gt;0 $" style="text;html=1;align=center;verticalAlign=middle;whiteSpace=wrap;rounded=0;" vertex="1" parent="1">
          <mxGeometry x="830" y="670" width="60" height="30" as="geometry" />
        </mxCell>
        <mxCell id="mny1-GzMn-NBweHntWzj-69" value="" style="endArrow=classic;html=1;rounded=0;entryX=0.008;entryY=0.486;entryDx=0;entryDy=0;entryPerimeter=0;" edge="1" parent="1" target="mny1-GzMn-NBweHntWzj-4">
          <mxGeometry width="50" height="50" relative="1" as="geometry">
            <mxPoint x="400" y="370" as="sourcePoint" />
            <mxPoint x="520" y="430" as="targetPoint" />
          </mxGeometry>
        </mxCell>
        <mxCell id="mny1-GzMn-NBweHntWzj-71" value="New bill" style="text;html=1;align=center;verticalAlign=middle;whiteSpace=wrap;rounded=0;" vertex="1" parent="1">
          <mxGeometry x="590" y="-10" width="60" height="30" as="geometry" />
        </mxCell>
        <mxCell id="mny1-GzMn-NBweHntWzj-72" value="Total cost:&lt;div&gt;203 $&lt;/div&gt;" style="rounded=0;whiteSpace=wrap;html=1;" vertex="1" parent="1">
          <mxGeometry x="560" y="50" width="120" height="60" as="geometry" />
        </mxCell>
        <mxCell id="mny1-GzMn-NBweHntWzj-73" value="Add expense" style="rounded=0;whiteSpace=wrap;html=1;" vertex="1" parent="1">
          <mxGeometry x="560" y="140" width="120" height="30" as="geometry" />
        </mxCell>
      </root>
    </mxGraphModel>
  </diagram>
</mxfile>
